<svg xmlns="http://www.w3.org/2000/svg" viewBox="0 0 1600 1000">
  <defs>
    <linearGradient id="sky" x1="0" x2="1" y1="0" y2="1">
      <stop offset="0" stop-color="#25112d"/>
      <stop offset="0.46" stop-color="#5b234d"/>
      <stop offset="1" stop-color="#182b4e"/>
    </linearGradient>
    <radialGradient id="moon" cx="74%" cy="20%" r="18%">
      <stop offset="0" stop-color="#fff7ed"/>
      <stop offset="0.45" stop-color="#ffd7e8" stop-opacity=".9"/>
      <stop offset="1" stop-color="#ffd7e8" stop-opacity="0"/>
    </radialGradient>
    <radialGradient id="pink" cx="22%" cy="30%" r="42%">
      <stop offset="0" stop-color="#ff7ab6" stop-opacity=".85"/>
      <stop offset="1" stop-color="#ff7ab6" stop-opacity="0"/>
    </radialGradient>
    <filter id="blur"><feGaussianBlur stdDeviation="7"/></filter>
  </defs>
  <rect width="1600" height="1000" fill="url(#sky)"/>
  <rect width="1600" height="1000" fill="url(#moon)"/>
  <rect width="1600" height="1000" fill="url(#pink)"/>
  <g opacity=".26" fill="#fff">
    <circle cx="160" cy="120" r="2"/><circle cx="330" cy="210" r="1.6"/><circle cx="620" cy="100" r="2"/><circle cx="980" cy="145" r="1.8"/><circle cx="1290" cy="95" r="2.2"/><circle cx="1430" cy="270" r="1.6"/>
  </g>
  <g filter="url(#blur)" opacity=".5">
    <circle cx="1180" cy="170" r="92" fill="#fff1f2"/>
  </g>
  <g transform="translate(0 120)" opacity=".78">
    <path d="M0 590 C180 520 260 600 420 530 C600 450 720 510 860 470 C1080 410 1220 470 1600 380 L1600 1000 L0 1000 Z" fill="#120a1f" opacity=".72"/>
    <path d="M0 650 C240 570 410 610 610 540 C780 480 920 530 1120 485 C1300 445 1440 460 1600 420 L1600 1000 L0 1000 Z" fill="#090716" opacity=".86"/>
  </g>
  <g stroke="#2a1024" stroke-width="18" stroke-linecap="round" opacity=".88">
    <path d="M180 1000 C230 760 320 560 520 330"/>
    <path d="M520 330 C420 360 330 355 250 305" stroke-width="12"/>
    <path d="M520 330 C625 300 730 235 790 160" stroke-width="12"/>
    <path d="M520 330 C610 380 700 398 820 384" stroke-width="10"/>
  </g>
  <g fill="#ffb7d5" opacity=".9">
    <circle cx="250" cy="300" r="18"/><circle cx="322" cy="338" r="15"/><circle cx="410" cy="352" r="20"/><circle cx="535" cy="318" r="24"/><circle cx="630" cy="278" r="17"/><circle cx="720" cy="220" r="20"/><circle cx="792" cy="160" r="16"/><circle cx="820" cy="382" r="18"/><circle cx="688" cy="398" r="14"/>
  </g>
  <g fill="#ffd6e7" opacity=".95">
    <ellipse cx="1110" cy="655" rx="13" ry="7" transform="rotate(-22 1110 655)"/>
    <ellipse cx="1240" cy="730" rx="10" ry="6" transform="rotate(18 1240 730)"/>
    <ellipse cx="980" cy="790" rx="12" ry="7" transform="rotate(34 980 790)"/>
    <ellipse cx="1390" cy="540" rx="11" ry="6" transform="rotate(-34 1390 540)"/>
    <ellipse cx="420" cy="690" rx="10" ry="6" transform="rotate(21 420 690)"/>
  </g>
</svg>
