<svg xmlns="http://www.w3.org/2000/svg" viewBox="0 0 96 96" role="img" aria-label="Sakura">
  <defs>
    <linearGradient id="bg" x1="16" y1="10" x2="80" y2="86" gradientUnits="userSpaceOnUse">
      <stop stop-color="#ff9ac8"/>
      <stop offset="1" stop-color="#7dd3fc"/>
    </linearGradient>
    <linearGradient id="petal" x1="24" y1="18" x2="72" y2="78" gradientUnits="userSpaceOnUse">
      <stop stop-color="#fff7fb"/>
      <stop offset="1" stop-color="#ffc2dc"/>
    </linearGradient>
  </defs>
  <rect width="96" height="96" rx="24" fill="url(#bg)"/>
  <circle cx="48" cy="48" r="31" fill="rgba(255,255,255,.18)" stroke="rgba(255,255,255,.55)" stroke-width="2"/>
  <path d="M48 23c8 8 8 16 0 25-8-9-8-17 0-25Z" fill="url(#petal)"/>
  <path d="M72 40c-3 11-10 15-22 12 4-11 11-15 22-12Z" fill="url(#petal)"/>
  <path d="M63 71c-11 1-17-4-18-16 12-1 18 4 18 16Z" fill="url(#petal)"/>
  <path d="M33 71c0-12 6-17 18-16-1 12-7 17-18 16Z" fill="url(#petal)"/>
  <path d="M24 40c11-3 18 1 22 12-12 3-19-1-22-12Z" fill="url(#petal)"/>
  <circle cx="48" cy="51" r="6" fill="#ff7ab6" stroke="rgba(255,255,255,.7)" stroke-width="2"/>
  <path d="M48 51 61 38M48 51l15 14M48 51 33 66M48 51 35 37M48 51V31" stroke="rgba(255,122,182,.65)" stroke-width="2" stroke-linecap="round"/>
</svg>
